Fly_normalized_Motion_pl15
version=1
nRows=23
nColumns=43
inDegrees=yes
endheader
time		pelvis_tilt		pelvis_list		pelvis_rotation		pelvis_tx		pelvis_ty		pelvis_tz		hip_flexion_r		hip_adduction_r		hip_rotation_r		knee_angle_r		ankle_angle_r		subtalar_angle_r		mtp_angle_r		hip_flexion_l		hip_adduction_l		hip_rotation_l		knee_angle_l		ankle_angle_l		subtalar_angle_l		mtp_angle_l		lumbar_extension		lumbar_bending		lumbar_rotation		neck_flexion		neck_lateral_bending		neck_rotation		arm_flex_r		arm_add_r		arm_rot_r		elbow_flex_r		pro_sup_r		wrist_flex_r		wrist_dev_r		hand_finger_flex_r		arm_flex_l		arm_add_l		arm_rot_l		elbow_flex_l		pro_sup_l		wrist_flex_l		wrist_dev_l		hand_finger_flex_l		
0.673333		-0.010165		-15.735019		88.678686		0.045126		1.857667		1.240796		57.231189		2.647889		-0.324286		-65.634231		-10.409929		-9.416896		12.348126		57.015638		-9.442715		-7.242216		-57.866937		-11.715232		0.669280		27.651480		-37.976536		-2.750453		0.433979		12.425585		-1.007666		2.384930		64.350158		-15.912652		20.375229		71.895069		109.537079		0.723291		11.201115		32.688478		69.185198		-27.893288		23.363799		73.796389		102.986314		-4.204801		7.516255		24.672278		
0.677677		-0.139539		-15.596708		88.565071		0.044776		1.852292		1.232512		57.178007		2.638228		-0.249243		-64.450139		-10.862386		-9.162278		12.551702		56.546159		-9.404198		-7.618135		-56.479312		-12.220078		0.903234		27.620993		-38.029471		-2.887112		0.366783		12.407921		-1.091664		2.385582		62.281907		-16.411745		19.903575		72.294299		109.622630		0.637711		11.132621		32.726250		67.137029		-28.463691		22.635857		74.159924		103.231024		-3.867247		7.490112		24.925901		
0.682020		-0.175923		-15.474767		88.528181		0.044409		1.846565		1.224152		57.092991		2.634175		-0.279485		-63.258738		-11.250225		-8.862665		12.672720		56.117322		-9.389436		-7.910844		-55.141580		-12.626005		1.039292		27.590758		-38.028274		-2.919097		0.308591		12.223554		-1.173174		2.416462		60.215355		-16.982558		19.514476		72.690526		109.721867		0.647868		11.065596		32.802655		65.119891		-29.199510		22.165666		74.509452		103.377279		-3.580313		7.334912		25.102779		
0.686364		-0.278444		-15.364204		88.404428		0.043919		1.840676		1.215681		56.975901		2.593787		-0.238101		-62.050611		-11.498782		-8.350398		13.129181		55.634049		-9.374991		-8.337432		-53.754992		-13.244597		1.052731		27.491212		-38.019971		-2.979698		0.205206		12.134816		-1.454018		2.517535		58.177751		-17.496958		19.164637		73.102361		110.561968		0.802460		10.916000		32.786480		62.722543		-29.782218		20.909148		74.937415		104.280545		-2.846492		6.710358		25.285350		
0.690707		-0.305839		-15.270804		88.344001		0.043499		1.834517		1.207324		56.826766		2.572484		-0.282129		-60.806134		-11.702413		-7.952504		13.492086		55.178422		-9.361468		-8.631174		-52.373037		-13.710797		1.093614		27.405418		-37.982293		-2.980553		0.145032		11.964223		-1.642249		2.618415		56.210761		-18.199232		18.999493		73.469922		111.124239		0.965100		10.744321		32.774001		60.526262		-30.465770		20.064379		75.252714		105.007369		-2.235433		6.223856		25.403543		
0.695051		-0.216043		-15.151585		88.380225		0.043193		1.828100		1.198888		56.598138		2.570349		-0.510358		-59.544044		-11.885355		-7.708124		13.523332		54.738507		-9.403223		-8.815270		-51.052570		-14.122242		1.299505		27.374124		-37.959686		-2.898923		0.185076		11.689895		-1.679081		2.664971		54.205345		-19.248577		19.032023		74.000502		110.976305		0.947335		10.559005		32.775994		58.572991		-31.299798		19.894771		75.546602		104.970837		-2.197274		6.013009		25.405231		
0.699394		-0.077103		-14.859856		88.397423		0.042702		1.821919		1.190153		56.115374		2.566449		-0.782358		-58.268217		-11.931251		-7.151195		13.699422		54.134766		-9.513708		-8.998164		-49.808169		-15.069235		1.667383		27.284686		-38.196720		-2.724749		0.286303		11.956635		-1.922655		2.693848		52.157058		-20.384021		19.063524		74.668896		110.713255		0.537810		10.165663		32.435919		56.241457		-31.729549		18.859766		75.904003		105.077668		-2.387049		5.613401		25.303213		
0.703737		0.089037		-14.486517		88.492939		0.042075		1.815606		1.181379		55.516527		2.534031		-1.076063		-57.010524		-11.888149		-6.603390		14.029139		53.406209		-9.526070		-9.063016		-48.525200		-15.614179		1.821696		27.111891		-38.467742		-2.458380		0.198440		11.881802		-2.196954		2.810383		50.387728		-21.417237		19.454698		75.012700		110.418417		0.283548		9.979213		31.893680		53.911712		-32.391919		17.878376		76.318255		105.709910		-2.084988		5.545062		25.413038		
0.708081		0.209997		-14.172613		88.583086		0.041583		1.808866		1.172520		54.983962		2.501152		-1.310193		-55.801360		-11.910048		-6.202831		14.310523		52.753526		-9.523893		-9.124649		-47.307458		-16.098230		2.003879		26.942875		-38.612615		-2.262362		0.079023		11.643991		-2.373718		2.953199		48.484896		-22.275126		19.559751		75.264523		110.112131		0.135224		9.872898		31.463356		51.580154		-33.060820		16.984627		76.628492		106.194758		-1.779042		5.555776		25.548907		
0.712424		0.252875		-13.944299		88.600789		0.041378		1.801627		1.163481		54.603714		2.511102		-1.419939		-54.744572		-12.049096		-5.962704		14.411701		52.190174		-9.554069		-9.297026		-46.167500		-16.802054		2.393603		26.834284		-38.611114		-2.233854		0.034686		11.300599		-2.368357		3.004576		46.136264		-22.818894		18.829365		75.546549		109.939435		0.098994		9.769911		31.391589		49.141490		-33.546021		16.002516		76.849477		106.051360		-1.840944		5.526285		25.598603		
0.716768		0.262155		-13.709041		88.603861		0.040996		1.794249		1.154511		54.162959		2.524618		-1.416420		-53.590508		-12.146175		-5.737526		14.496102		51.596691		-9.511049		-9.383057		-45.019948		-17.315852		2.723424		26.735078		-38.600551		-2.211989		-0.061577		10.989193		-2.364448		3.067927		43.959114		-23.306613		18.207195		75.626575		110.004645		0.196933		9.709219		31.364819		46.703057		-34.081543		15.057882		76.990278		105.963220		-1.841534		5.467130		25.654265		
0.721111		0.291858		-13.418105		88.611833		0.040653		1.786625		1.145450		53.703396		2.539841		-1.463410		-52.564400		-12.305425		-5.533090		14.557531		50.976996		-9.485029		-9.429805		-43.971569		-17.786167		3.038944		26.643818		-38.639388		-2.174498		-0.175901		10.580862		-2.354794		3.144364		41.750228		-23.845679		17.639189		75.794042		110.066118		0.292080		9.600741		31.332426		44.209059		-34.717401		14.137503		77.137366		105.864159		-1.857533		5.297359		25.675183		
0.725455		0.350908		-13.105485		88.640645		0.040233		1.778848		1.136381		53.190547		2.557980		-1.529346		-51.516241		-12.476393		-5.344716		14.606305		50.339900		-9.457577		-9.411970		-42.944617		-18.222902		3.362038		26.559721		-38.706315		-2.096181		-0.275755		10.200552		-2.360455		3.240640		39.558291		-24.449677		17.114356		75.948646		110.083920		0.352188		9.449182		31.268137		41.686514		-35.349727		13.230514		77.297518		105.751326		-1.921544		5.020806		25.644435		
0.729798		0.458403		-12.738722		88.692028		0.039766		1.770989		1.127256		52.578450		2.575886		-1.670751		-50.434568		-12.654358		-5.143580		14.660109		49.659960		-9.450742		-9.323399		-41.962987		-18.653959		3.720159		26.473630		-38.844571		-1.953482		-0.378868		9.888818		-2.402667		3.369655		37.381956		-25.071794		16.604494		76.119890		110.001742		0.351888		9.210109		31.136418		39.084834		-35.948067		12.226523		77.471463		105.643658		-2.072769		4.640135		25.538948		
0.734141		0.754419		-12.145519		88.865460		0.039071		1.763423		1.117817		51.630326		2.611820		-2.077900		-49.292573		-12.827500		-4.850528		14.825920		48.776734		-9.537148		-9.066138		-41.042839		-19.080860		4.258381		26.312013		-39.263973		-1.528767		-0.562773		9.759684		-2.590759		3.671521		35.295118		-25.552206		16.072738		76.193144		109.592400		0.250599		8.624541		30.665501		36.056040		-36.358150		10.525122		77.800786		105.708056		-2.398437		4.014393		25.190073		
0.738485		0.953891		-11.813249		88.955098		0.038543		1.755008		1.108704		50.984639		2.670237		-2.314201		-48.155225		-12.993156		-4.647288		14.919497		48.170704		-9.569810		-8.792360		-40.157748		-19.215408		4.585373		26.214302		-39.323724		-1.286686		-0.654648		9.371135		-2.675458		3.823580		33.243332		-26.365255		15.889315		76.275912		109.050303		0.174087		8.176693		30.382403		33.468092		-36.941713		9.657103		77.929752		105.820950		-2.500657		3.749089		25.010084		
0.742828		1.201144		-11.397237		89.075268		0.037999		1.746456		1.099329		50.271396		2.740095		-2.618009		-47.136151		-13.234126		-4.404812		15.051593		47.516950		-9.659202		-8.504899		-39.397360		-19.363688		4.995899		26.078610		-39.443583		-0.973290		-0.749288		8.855678		-2.782232		4.022121		31.044910		-26.982624		15.397330		76.303841		108.237593		-0.089812		7.572277		29.924396		30.581007		-37.211743		8.242986		78.075075		105.928492		-2.713636		3.399859		24.736660		
0.747172		1.316088		-11.156669		89.070269		0.037567		1.737237		1.090143		49.787283		2.815869		-2.696306		-46.169079		-13.471819		-4.219149		15.076441		47.030866		-9.705859		-8.328920		-38.656577		-19.449575		5.284052		26.012547		-39.328011		-0.865007		-0.726773		8.270908		-2.807970		4.044374		28.697101		-27.685914		14.760120		76.414198		107.676375		-0.344104		7.158724		29.742116		27.937561		-37.442268		7.225543		78.068997		105.839652		-2.897231		3.167442		24.632421		
0.751515		1.433708		-10.915836		89.066467		0.037269		1.727765		1.080947		49.309242		2.912589		-2.759807		-45.223055		-13.744097		-4.038777		15.073631		46.557888		-9.776940		-8.150296		-37.970400		-19.454713		5.617262		25.952318		-39.200772		-0.774089		-0.721647		7.670472		-2.857915		4.071808		26.358170		-28.397081		14.181192		76.476233		107.241982		-0.589890		6.761542		29.595275		25.252408		-37.659011		6.145156		78.074716		105.771911		-3.059019		2.876809		24.568982		
0.755859		1.473611		-10.717057		89.039877		0.036954		1.717977		1.071948		48.876737		2.957256		-2.774541		-44.263974		-14.020726		-3.899210		15.033993		46.126354		-9.770471		-7.987182		-37.277225		-19.469123		5.835503		25.920216		-39.013397		-0.762383		-0.729350		7.018735		-2.853663		4.085190		24.081161		-29.215083		13.739442		76.546012		107.054341		-0.736822		6.579027		29.582253		22.741729		-38.074238		5.478281		78.045021		105.678624		-3.143563		2.663477		24.570495		
0.760202		1.517859		-10.501739		89.007992		0.036695		1.707999		1.062912		48.439811		3.002382		-2.812010		-43.357220		-14.336684		-3.747767		14.978973		45.676610		-9.784492		-7.841357		-36.606924		-19.486248		6.085979		25.888810		-38.842932		-0.757390		-0.748294		6.355669		-2.833654		4.106132		21.725954		-29.963396		13.164393		76.625165		106.926861		-0.923225		6.410315		29.609433		20.117543		-38.435339		4.660729		78.061527		105.539789		-3.287793		2.372845		24.566788		
0.764545		1.586009		-10.196550		88.984547		0.036509		1.697908		1.053670		47.954581		3.044145		-2.904981		-42.602886		-14.760144		-3.538107		14.888277		45.150084		-9.852983		-7.737098		-36.022424		-19.487670		6.498476		25.832691		-38.774855		-0.729586		-0.869454		5.738713		-2.805566		4.232697		19.275229		-30.415885		12.253793		76.696977		106.985462		-1.158716		6.232683		29.830659		17.112686		-38.590388		3.219853		78.209685		105.364788		-3.564288		1.795270		24.544811		
0.768889		1.553703		-9.960516		88.967198		0.036087		1.687544		1.044666		47.512951		2.974610		-2.943791		-41.784740		-15.127831		-3.351223		14.809253		44.649665		-9.774860		-7.639787		-35.333046		-19.532266		6.687979		25.799596		-38.610448		-0.771895		-0.971766		4.996176		-2.755429		4.306004		16.944279		-31.184724		11.698116		76.759356		107.042243		-1.200040		6.217422		30.109075		14.468973		-39.010796		2.527118		78.285582		105.271164		-3.611898		1.495883		24.594457		
